<?xml version="1.0" encoding="UTF-8"?>
<svg xmlns="http://www.w3.org/2000/svg" viewBox="0 0 1920 1080" width="1920" height="1080">
  <defs>
    <radialGradient id="spaceGradient" cx="50%" cy="50%" r="75%">
      <stop offset="0%" stop-color="#0a1625" />
      <stop offset="60%" stop-color="#050c16" />
      <stop offset="100%" stop-color="#02050a" />
    </radialGradient>
    <linearGradient id="goldText" x1="0%" y1="0%" x2="0%" y2="100%">
      <stop offset="0%" stop-color="#f3e9dc" />
      <stop offset="60%" stop-color="#dfc29e" />
      <stop offset="100%" stop-color="#b89773" />
    </linearGradient>
    <linearGradient id="accentGrad" x1="0%" y1="0%" x2="100%" y2="0%">
      <stop offset="0%"   stop-color="#a78bfa" stop-opacity="0" />
      <stop offset="50%"  stop-color="#a78bfa" stop-opacity="0.95" />
      <stop offset="100%" stop-color="#a78bfa" stop-opacity="0" />
    </linearGradient>
    <linearGradient id="spectrumGrad" x1="0%" y1="0%" x2="100%" y2="0%">
      <stop offset="0%" stop-color="#ef4444"/>
      <stop offset="20%" stop-color="#f59e0b"/>
      <stop offset="40%" stop-color="#10b981"/>
      <stop offset="60%" stop-color="#3b82f6"/>
      <stop offset="80%" stop-color="#8b5cf6"/>
      <stop offset="100%" stop-color="#ec4899"/>
    </linearGradient>
    <pattern id="dotPattern" width="40" height="40" patternUnits="userSpaceOnUse">
      <circle cx="2" cy="2" r="1" fill="#58a6ff" fill-opacity="0.15"/>
    </pattern>
    <filter id="glow"><feGaussianBlur stdDeviation="3" result="b"/><feMerge><feMergeNode in="b"/><feMergeNode in="SourceGraphic"/></feMerge></filter>
  </defs>

  <rect width="1920" height="1080" fill="url(#spaceGradient)"/>
  <rect width="1920" height="1080" fill="url(#dotPattern)"/>
  <rect x="30" y="30" width="1860" height="1020" rx="10" fill="none" stroke="#ffffff" stroke-width="1" opacity="0.08"/>

  <g transform="translate(960, 220)" text-anchor="middle" font-family="Arial, sans-serif">
    <g transform="translate(0, -90)">
      <rect x="-140" y="-18" width="280" height="32" rx="16" fill="#ffffff" fill-opacity="0.04" stroke="#ffffff" stroke-opacity="0.15" stroke-width="1"/>
      <circle cx="-110" cy="-2" r="3" fill="#38bdf8"/>
      <text y="4" font-size="13" font-weight="bold" fill="#a0afb7" letter-spacing="4">ARXIV BRIEFING</text>
    </g>
    <text font-size="56" font-weight="800" fill="#ffffff" letter-spacing="5">QUANTUM</text>
    <text y="85" font-size="56" font-weight="800" fill="url(#goldText)" letter-spacing="5">METAGENOMICS AT HOME: ORCHESTRATING</text>
    <text y="170" font-size="20" font-weight="500" fill="#a0afb7" letter-spacing="3" opacity="0.8">Metagenomics at Home: Orchestrating an eDNA Pipeline with Oxford Nanopore and NVIDIA DGX Spark</text>
  </g>

  
  <g transform="translate(960, 720)">
    <text x="-540" y="-220" font-family="monospace" font-size="14" fill="#a78bfa" letter-spacing="2">PROCESS FLOW</text>
    
      <g transform="translate(-530, -40)">
        <rect x="0" y="0" width="180" height="80" rx="10" fill="rgba(15,23,42,0.7)" stroke="#a78bfa" stroke-width="1.5"/>
        <rect x="0" y="0" width="180" height="22" rx="10" fill="#a78bfa" fill-opacity="0.25"/>
        <text x="90" y="16" font-family="monospace" font-size="11" fill="#a78bfa" text-anchor="middle" letter-spacing="3">1</text>
        <text x="90" y="50" font-family="sans-serif" font-size="18" font-weight="bold" fill="#ffffff" text-anchor="middle">PREPARE</text>
        <text x="90" y="70" font-family="monospace" font-size="14" fill="#38bdf8" text-anchor="middle">|ψ⟩</text>
      </g>
      <path d="M -350, 0 L -318, 0" stroke="#a78bfa" stroke-width="2" fill="none"/>
                                  <polygon points="-318,-6 -310,0 -318,6" fill="#a78bfa"/>
      <g transform="translate(-310, -40)">
        <rect x="0" y="0" width="180" height="80" rx="10" fill="rgba(15,23,42,0.7)" stroke="#a78bfa" stroke-width="1.5"/>
        <rect x="0" y="0" width="180" height="22" rx="10" fill="#a78bfa" fill-opacity="0.25"/>
        <text x="90" y="16" font-family="monospace" font-size="11" fill="#a78bfa" text-anchor="middle" letter-spacing="3">2</text>
        <text x="90" y="50" font-family="sans-serif" font-size="18" font-weight="bold" fill="#ffffff" text-anchor="middle">EVOLVE</text>
        <text x="90" y="70" font-family="monospace" font-size="14" fill="#38bdf8" text-anchor="middle">U(t)</text>
      </g>
      <path d="M -130, 0 L -98, 0" stroke="#a78bfa" stroke-width="2" fill="none"/>
                                  <polygon points="-98,-6 -90,0 -98,6" fill="#a78bfa"/>
      <g transform="translate(-90, -40)">
        <rect x="0" y="0" width="180" height="80" rx="10" fill="rgba(15,23,42,0.7)" stroke="#a78bfa" stroke-width="1.5"/>
        <rect x="0" y="0" width="180" height="22" rx="10" fill="#a78bfa" fill-opacity="0.25"/>
        <text x="90" y="16" font-family="monospace" font-size="11" fill="#a78bfa" text-anchor="middle" letter-spacing="3">3</text>
        <text x="90" y="50" font-family="sans-serif" font-size="18" font-weight="bold" fill="#ffffff" text-anchor="middle">MEASURE</text>
        <text x="90" y="70" font-family="monospace" font-size="14" fill="#38bdf8" text-anchor="middle">M</text>
      </g>
      <path d="M 90, 0 L 122, 0" stroke="#a78bfa" stroke-width="2" fill="none"/>
                                  <polygon points="122,-6 130,0 122,6" fill="#a78bfa"/>
      <g transform="translate(130, -40)">
        <rect x="0" y="0" width="180" height="80" rx="10" fill="rgba(15,23,42,0.7)" stroke="#a78bfa" stroke-width="1.5"/>
        <rect x="0" y="0" width="180" height="22" rx="10" fill="#a78bfa" fill-opacity="0.25"/>
        <text x="90" y="16" font-family="monospace" font-size="11" fill="#a78bfa" text-anchor="middle" letter-spacing="3">4</text>
        <text x="90" y="50" font-family="sans-serif" font-size="18" font-weight="bold" fill="#ffffff" text-anchor="middle">FEEDBACK</text>
        <text x="90" y="70" font-family="monospace" font-size="14" fill="#38bdf8" text-anchor="middle">FB</text>
      </g>
      <path d="M 310, 0 L 342, 0" stroke="#a78bfa" stroke-width="2" fill="none"/>
                                  <polygon points="342,-6 350,0 342,6" fill="#a78bfa"/>
      <g transform="translate(350, -40)">
        <rect x="0" y="0" width="180" height="80" rx="10" fill="rgba(15,23,42,0.7)" stroke="#a78bfa" stroke-width="1.5"/>
        <rect x="0" y="0" width="180" height="22" rx="10" fill="#a78bfa" fill-opacity="0.25"/>
        <text x="90" y="16" font-family="monospace" font-size="11" fill="#a78bfa" text-anchor="middle" letter-spacing="3">5</text>
        <text x="90" y="50" font-family="sans-serif" font-size="18" font-weight="bold" fill="#ffffff" text-anchor="middle">CORRECT</text>
        <text x="90" y="70" font-family="monospace" font-size="14" fill="#38bdf8" text-anchor="middle">→|ψ'⟩</text>
      </g>
      
    <text x="0" y="100" font-family="monospace" font-size="14" fill="#a78bfa" text-anchor="middle">PIPELINE · MEASUREMENT → FEEDFORWARD → CORRECTION</text>
  </g>

  <g stroke="#38bdf8" stroke-width="2" fill="none" opacity="0.5">
    <path d="M 50,50 L 150,50 M 50,50 L 50,150"/>
    <path d="M 1870,50 L 1770,50 M 1870,50 M 1870,150"/>
    <path d="M 50,1030 L 150,1030 M 50,1030 L 50,930"/>
    <path d="M 1870,1030 L 1770,1030 M 1870,1030 M 1870,930"/>
  </g>

  <g transform="translate(960, 1010)" text-anchor="middle" font-family="sans-serif">
    <text font-size="15" font-weight="bold" fill="#ffffff" fill-opacity="0.4" letter-spacing="4">— ASK-MERIDIAN.UK —</text>
    <text y="24" font-size="13" fill="#718096" fill-opacity="0.8" letter-spacing="1">/blog/home-edna-sequencing-dgx-spark/</text>
  </g>
</svg>
