<?xml version="1.0" encoding="UTF-8"?>
<svg xmlns="http://www.w3.org/2000/svg" viewBox="0 0 1920 1080" width="1920" height="1080">
  <defs>
    <radialGradient id="spaceGradient" cx="50%" cy="50%" r="75%">
      <stop offset="0%" stop-color="#0a1625" />
      <stop offset="60%" stop-color="#050c16" />
      <stop offset="100%" stop-color="#02050a" />
    </radialGradient>
    <linearGradient id="goldText" x1="0%" y1="0%" x2="0%" y2="100%">
      <stop offset="0%" stop-color="#f3e9dc" />
      <stop offset="60%" stop-color="#dfc29e" />
      <stop offset="100%" stop-color="#b89773" />
    </linearGradient>
    <linearGradient id="accentGrad" x1="0%" y1="0%" x2="100%" y2="0%">
      <stop offset="0%"   stop-color="#38bdf8" stop-opacity="0" />
      <stop offset="50%"  stop-color="#38bdf8" stop-opacity="0.95" />
      <stop offset="100%" stop-color="#38bdf8" stop-opacity="0" />
    </linearGradient>
    <pattern id="dotPattern" width="40" height="40" patternUnits="userSpaceOnUse">
      <circle cx="2" cy="2" r="1" fill="#58a6ff" fill-opacity="0.15"/>
    </pattern>
  </defs>

  <rect width="1920" height="1080" fill="url(#spaceGradient)"/>
  <rect width="1920" height="1080" fill="url(#dotPattern)"/>

  <rect x="30" y="30" width="1860" height="1020" rx="10" fill="none" stroke="#ffffff" stroke-width="1" opacity="0.08"/>

  <!-- Kicker chip -->
  <g transform="translate(960, 220)" text-anchor="middle" font-family="Arial, sans-serif">
    <g transform="translate(0, -90)">
      <rect x="-140" y="-18" width="280" height="32" rx="16" fill="#ffffff" fill-opacity="0.04" stroke="#ffffff" stroke-opacity="0.15" stroke-width="1"/>
      <circle cx="-110" cy="-2" r="3" fill="#38bdf8"/>
      <text y="4" font-size="13" font-weight="bold" fill="#a0afb7" letter-spacing="4">ARXIV BRIEFING</text>
    </g>

    <!-- Title -->
    <text font-size="56" font-weight="800" fill="#ffffff" letter-spacing="5">INVERSE DESIGN · LOW LOSS · HIGH BANDWID</text>
    <text y="85" font-size="56" font-weight="800" fill="url(#goldText)" letter-spacing="5">PHOTONIC CRYSTAL WAVEGUIDES</text>
    <text y="170" font-size="20" font-weight="500" fill="#a0afb7" letter-spacing="3" opacity="0.8">A visual representation of advanced photonic crystal waveguides optimizing light manipulation.</text>
  </g>

  <!-- Bottom-half schematic: a single accent gradient curve evoking the paper's structure -->
  <g transform="translate(960, 720)">
    <path d="M -560,0 Q -360,80 -160,-20 Q 40,-80 240,0 Q 440,60 560,-10"
          stroke="url(#accentGrad)" stroke-width="3" fill="none"/>
    <circle cx="-560" cy="0" r="6" fill="#38bdf8"/>
    <circle cx="-160" cy="-20" r="6" fill="#38bdf8"/>
    <circle cx="240"  cy="0"   r="6" fill="#0ea5e9"/>
    <circle cx="560"  cy="-10" r="6" fill="#0ea5e9"/>
    <text x="0" y="120" text-anchor="middle" font-family="monospace" font-size="14" fill="#a0afb7" letter-spacing="2">A visual representation of advanced photonic crystal waveguides optimizing light manipulat</text>
  </g>

  <!-- Corner markers -->
  <g stroke="#38bdf8" stroke-width="2" fill="none" opacity="0.5">
    <path d="M 50,50 L 150,50 M 50,50 L 50,150"/>
    <path d="M 1870,50 L 1770,50 M 1870,50 M 1870,150"/>
    <path d="M 50,1030 L 150,1030 M 50,1030 L 50,930"/>
    <path d="M 1870,1030 L 1770,1030 M 1870,1030 L 1870,930"/>
  </g>

  <!-- Footer marker -->
  <g transform="translate(960, 1010)" text-anchor="middle" font-family="sans-serif">
    <text font-size="15" font-weight="bold" fill="#ffffff" fill-opacity="0.4" letter-spacing="4">— ASK-MERIDIAN.UK —</text>
    <text y="24" font-size="13" fill="#718096" fill-opacity="0.8" letter-spacing="1">/blog/inverse-designed-photonic-crystal-waveguides-for-pulsed-operation-dispersion-los/</text>
  </g>
</svg>
