<?xml version="1.0" encoding="UTF-8"?>
<svg xmlns="http://www.w3.org/2000/svg" viewBox="0 0 1920 1080" width="1920" height="1080">
  <defs>
    <radialGradient id="spaceGradient" cx="50%" cy="50%" r="75%">
      <stop offset="0%" stop-color="#0a1625" />
      <stop offset="60%" stop-color="#050c16" />
      <stop offset="100%" stop-color="#02050a" />
    </radialGradient>
    <linearGradient id="goldText" x1="0%" y1="0%" x2="0%" y2="100%">
      <stop offset="0%" stop-color="#f3e9dc" />
      <stop offset="60%" stop-color="#dfc29e" />
      <stop offset="100%" stop-color="#b89773" />
    </linearGradient>
    <linearGradient id="accentGrad" x1="0%" y1="0%" x2="100%" y2="0%">
      <stop offset="0%"   stop-color="#38bdf8" stop-opacity="0" />
      <stop offset="50%"  stop-color="#38bdf8" stop-opacity="0.95" />
      <stop offset="100%" stop-color="#38bdf8" stop-opacity="0" />
    </linearGradient>
    <linearGradient id="spectrumGrad" x1="0%" y1="0%" x2="100%" y2="0%">
      <stop offset="0%" stop-color="#ef4444"/>
      <stop offset="20%" stop-color="#f59e0b"/>
      <stop offset="40%" stop-color="#10b981"/>
      <stop offset="60%" stop-color="#3b82f6"/>
      <stop offset="80%" stop-color="#8b5cf6"/>
      <stop offset="100%" stop-color="#ec4899"/>
    </linearGradient>
    <pattern id="dotPattern" width="40" height="40" patternUnits="userSpaceOnUse">
      <circle cx="2" cy="2" r="1" fill="#58a6ff" fill-opacity="0.15"/>
    </pattern>
    <filter id="glow"><feGaussianBlur stdDeviation="3" result="b"/><feMerge><feMergeNode in="b"/><feMergeNode in="SourceGraphic"/></feMerge></filter>
  </defs>

  <rect width="1920" height="1080" fill="url(#spaceGradient)"/>
  <rect width="1920" height="1080" fill="url(#dotPattern)"/>
  <rect x="30" y="30" width="1860" height="1020" rx="10" fill="none" stroke="#ffffff" stroke-width="1" opacity="0.08"/>

  <g transform="translate(960, 220)" text-anchor="middle" font-family="Arial, sans-serif">
    <g transform="translate(0, -90)">
      <rect x="-140" y="-18" width="280" height="32" rx="16" fill="#ffffff" fill-opacity="0.04" stroke="#ffffff" stroke-opacity="0.15" stroke-width="1"/>
      <circle cx="-110" cy="-2" r="3" fill="#38bdf8"/>
      <text y="4" font-size="13" font-weight="bold" fill="#a0afb7" letter-spacing="4">ARXIV BRIEFING</text>
    </g>
    <text font-size="56" font-weight="800" fill="#ffffff" letter-spacing="5">QUANTUM</text>
    <text y="85" font-size="56" font-weight="800" fill="url(#goldText)" letter-spacing="5">ORBITAL ALTERMAGNETIC PHOTONIC CRYSTALS:</text>
    <text y="170" font-size="20" font-weight="500" fill="#a0afb7" letter-spacing="3" opacity="0.8">Orbital altermagnetic photonic crystals: Momentum-dependent pseudospin splitting</text>
  </g>

  
  <g transform="translate(960, 720)">
    <text x="-540" y="-220" font-family="monospace" font-size="14" fill="#38bdf8" letter-spacing="2">LATTICE</text>
    <polygon points="-218.2,-144.0 -249.4,-126.0 -280.6,-144.0 -280.6,-180.0 -249.4,-198.0 -218.2,-180.0" fill="rgba(15,23,42,0.6)" stroke="#ffffff" stroke-opacity="0.45" stroke-width="1"/>
    <polygon points="-155.9,-144.0 -187.1,-126.0 -218.2,-144.0 -218.2,-180.0 -187.1,-198.0 -155.9,-180.0" fill="rgba(15,23,42,0.6)" stroke="#ffffff" stroke-opacity="0.45" stroke-width="1"/>
    <polygon points="-93.5,-144.0 -124.7,-126.0 -155.9,-144.0 -155.9,-180.0 -124.7,-198.0 -93.5,-180.0" fill="rgba(15,23,42,0.6)" stroke="#ffffff" stroke-opacity="0.45" stroke-width="1"/>
    <polygon points="-31.2,-144.0 -62.4,-126.0 -93.5,-144.0 -93.5,-180.0 -62.4,-198.0 -31.2,-180.0" fill="rgba(15,23,42,0.6)" stroke="#ffffff" stroke-opacity="0.45" stroke-width="1"/>
    <polygon points="31.2,-144.0 0.0,-126.0 -31.2,-144.0 -31.2,-180.0 -0.0,-198.0 31.2,-180.0" fill="rgba(15,23,42,0.6)" stroke="#ffffff" stroke-opacity="0.45" stroke-width="1"/>
    <polygon points="93.5,-144.0 62.4,-126.0 31.2,-144.0 31.2,-180.0 62.4,-198.0 93.5,-180.0" fill="rgba(15,23,42,0.6)" stroke="#ffffff" stroke-opacity="0.45" stroke-width="1"/>
    <polygon points="155.9,-144.0 124.7,-126.0 93.5,-144.0 93.5,-180.0 124.7,-198.0 155.9,-180.0" fill="rgba(15,23,42,0.6)" stroke="#ffffff" stroke-opacity="0.45" stroke-width="1"/>
    <polygon points="218.2,-144.0 187.1,-126.0 155.9,-144.0 155.9,-180.0 187.1,-198.0 218.2,-180.0" fill="rgba(15,23,42,0.6)" stroke="#ffffff" stroke-opacity="0.45" stroke-width="1"/>
    <polygon points="280.6,-144.0 249.4,-126.0 218.2,-144.0 218.2,-180.0 249.4,-198.0 280.6,-180.0" fill="rgba(15,23,42,0.6)" stroke="#ffffff" stroke-opacity="0.45" stroke-width="1"/>
    <polygon points="-187.1,-90.0 -218.2,-72.0 -249.4,-90.0 -249.4,-126.0 -218.2,-144.0 -187.1,-126.0" fill="rgba(15,23,42,0.6)" stroke="#ffffff" stroke-opacity="0.45" stroke-width="1"/>
    <polygon points="-124.7,-90.0 -155.9,-72.0 -187.1,-90.0 -187.1,-126.0 -155.9,-144.0 -124.7,-126.0" fill="rgba(15,23,42,0.6)" stroke="#ffffff" stroke-opacity="0.45" stroke-width="1"/>
    <polygon points="-62.4,-90.0 -93.5,-72.0 -124.7,-90.0 -124.7,-126.0 -93.5,-144.0 -62.4,-126.0" fill="rgba(15,23,42,0.6)" stroke="#ffffff" stroke-opacity="0.45" stroke-width="1"/>
    <polygon points="0.0,-90.0 -31.2,-72.0 -62.4,-90.0 -62.4,-126.0 -31.2,-144.0 -0.0,-126.0" fill="rgba(15,23,42,0.6)" stroke="#ffffff" stroke-opacity="0.45" stroke-width="1"/>
    <polygon points="62.4,-90.0 31.2,-72.0 0.0,-90.0 -0.0,-126.0 31.2,-144.0 62.4,-126.0" fill="rgba(15,23,42,0.6)" stroke="#ffffff" stroke-opacity="0.45" stroke-width="1"/>
    <polygon points="124.7,-90.0 93.5,-72.0 62.4,-90.0 62.4,-126.0 93.5,-144.0 124.7,-126.0" fill="rgba(15,23,42,0.6)" stroke="#ffffff" stroke-opacity="0.45" stroke-width="1"/>
    <polygon points="187.1,-90.0 155.9,-72.0 124.7,-90.0 124.7,-126.0 155.9,-144.0 187.1,-126.0" fill="rgba(15,23,42,0.6)" stroke="#ffffff" stroke-opacity="0.45" stroke-width="1"/>
    <polygon points="249.4,-90.0 218.2,-72.0 187.1,-90.0 187.1,-126.0 218.2,-144.0 249.4,-126.0" fill="rgba(15,23,42,0.6)" stroke="#ffffff" stroke-opacity="0.45" stroke-width="1"/>
    <polygon points="311.8,-90.0 280.6,-72.0 249.4,-90.0 249.4,-126.0 280.6,-144.0 311.8,-126.0" fill="rgba(15,23,42,0.6)" stroke="#ffffff" stroke-opacity="0.45" stroke-width="1"/>
    <polygon points="-218.2,-36.0 -249.4,-18.0 -280.6,-36.0 -280.6,-72.0 -249.4,-90.0 -218.2,-72.0" fill="rgba(15,23,42,0.6)" stroke="#ffffff" stroke-opacity="0.45" stroke-width="1"/>
    <polygon points="-155.9,-36.0 -187.1,-18.0 -218.2,-36.0 -218.2,-72.0 -187.1,-90.0 -155.9,-72.0" fill="rgba(15,23,42,0.6)" stroke="#ffffff" stroke-opacity="0.45" stroke-width="1"/>
    <polygon points="-93.5,-36.0 -124.7,-18.0 -155.9,-36.0 -155.9,-72.0 -124.7,-90.0 -93.5,-72.0" fill="rgba(15,23,42,0.6)" stroke="#ffffff" stroke-opacity="0.45" stroke-width="1"/>
    <polygon points="-31.2,-36.0 -62.4,-18.0 -93.5,-36.0 -93.5,-72.0 -62.4,-90.0 -31.2,-72.0" fill="rgba(15,23,42,0.6)" stroke="#ffffff" stroke-opacity="0.45" stroke-width="1"/>
    <polygon points="31.2,-36.0 0.0,-18.0 -31.2,-36.0 -31.2,-72.0 -0.0,-90.0 31.2,-72.0" fill="rgba(15,23,42,0.6)" stroke="#ffffff" stroke-opacity="0.45" stroke-width="1"/>
    <polygon points="93.5,-36.0 62.4,-18.0 31.2,-36.0 31.2,-72.0 62.4,-90.0 93.5,-72.0" fill="rgba(15,23,42,0.6)" stroke="#ffffff" stroke-opacity="0.45" stroke-width="1"/>
    <polygon points="155.9,-36.0 124.7,-18.0 93.5,-36.0 93.5,-72.0 124.7,-90.0 155.9,-72.0" fill="rgba(15,23,42,0.6)" stroke="#ffffff" stroke-opacity="0.45" stroke-width="1"/>
    <polygon points="218.2,-36.0 187.1,-18.0 155.9,-36.0 155.9,-72.0 187.1,-90.0 218.2,-72.0" fill="rgba(15,23,42,0.6)" stroke="#ffffff" stroke-opacity="0.45" stroke-width="1"/>
    <polygon points="280.6,-36.0 249.4,-18.0 218.2,-36.0 218.2,-72.0 249.4,-90.0 280.6,-72.0" fill="rgba(15,23,42,0.6)" stroke="#ffffff" stroke-opacity="0.45" stroke-width="1"/>
    <polygon points="-187.1,18.0 -218.2,36.0 -249.4,18.0 -249.4,-18.0 -218.2,-36.0 -187.1,-18.0" fill="rgba(15,23,42,0.6)" stroke="#ffffff" stroke-opacity="0.45" stroke-width="1"/>
    <polygon points="-124.7,18.0 -155.9,36.0 -187.1,18.0 -187.1,-18.0 -155.9,-36.0 -124.7,-18.0" fill="rgba(15,23,42,0.6)" stroke="#ffffff" stroke-opacity="0.45" stroke-width="1"/>
    <polygon points="-62.4,18.0 -93.5,36.0 -124.7,18.0 -124.7,-18.0 -93.5,-36.0 -62.4,-18.0" fill="rgba(15,23,42,0.6)" stroke="#ffffff" stroke-opacity="0.45" stroke-width="1"/>
    <polygon points="0.0,18.0 -31.2,36.0 -62.4,18.0 -62.4,-18.0 -31.2,-36.0 -0.0,-18.0" fill="rgba(15,23,42,0.6)" stroke="#ffffff" stroke-opacity="0.45" stroke-width="1"/>
    <polygon points="62.4,18.0 31.2,36.0 0.0,18.0 -0.0,-18.0 31.2,-36.0 62.4,-18.0" fill="#0ea5e9" stroke="#0ea5e9" stroke-opacity="1" stroke-width="2.5"/>
    <circle cx="31.17691453623979" cy="0" r="8" fill="#38bdf8"/>
    <text x="31.17691453623979" y="-50" font-family="monospace" font-size="11" fill="#38bdf8" text-anchor="middle">DEFECT</text>
    <polygon points="124.7,18.0 93.5,36.0 62.4,18.0 62.4,-18.0 93.5,-36.0 124.7,-18.0" fill="rgba(15,23,42,0.6)" stroke="#ffffff" stroke-opacity="0.45" stroke-width="1"/>
    <polygon points="187.1,18.0 155.9,36.0 124.7,18.0 124.7,-18.0 155.9,-36.0 187.1,-18.0" fill="rgba(15,23,42,0.6)" stroke="#ffffff" stroke-opacity="0.45" stroke-width="1"/>
    <polygon points="249.4,18.0 218.2,36.0 187.1,18.0 187.1,-18.0 218.2,-36.0 249.4,-18.0" fill="rgba(15,23,42,0.6)" stroke="#ffffff" stroke-opacity="0.45" stroke-width="1"/>
    <polygon points="311.8,18.0 280.6,36.0 249.4,18.0 249.4,-18.0 280.6,-36.0 311.8,-18.0" fill="rgba(15,23,42,0.6)" stroke="#ffffff" stroke-opacity="0.45" stroke-width="1"/>
    <polygon points="-218.2,72.0 -249.4,90.0 -280.6,72.0 -280.6,36.0 -249.4,18.0 -218.2,36.0" fill="rgba(15,23,42,0.6)" stroke="#ffffff" stroke-opacity="0.45" stroke-width="1"/>
    <polygon points="-155.9,72.0 -187.1,90.0 -218.2,72.0 -218.2,36.0 -187.1,18.0 -155.9,36.0" fill="rgba(15,23,42,0.6)" stroke="#ffffff" stroke-opacity="0.45" stroke-width="1"/>
    <polygon points="-93.5,72.0 -124.7,90.0 -155.9,72.0 -155.9,36.0 -124.7,18.0 -93.5,36.0" fill="rgba(15,23,42,0.6)" stroke="#ffffff" stroke-opacity="0.45" stroke-width="1"/>
    <polygon points="-31.2,72.0 -62.4,90.0 -93.5,72.0 -93.5,36.0 -62.4,18.0 -31.2,36.0" fill="rgba(15,23,42,0.6)" stroke="#ffffff" stroke-opacity="0.45" stroke-width="1"/>
    <polygon points="31.2,72.0 0.0,90.0 -31.2,72.0 -31.2,36.0 -0.0,18.0 31.2,36.0" fill="rgba(15,23,42,0.6)" stroke="#ffffff" stroke-opacity="0.45" stroke-width="1"/>
    <polygon points="93.5,72.0 62.4,90.0 31.2,72.0 31.2,36.0 62.4,18.0 93.5,36.0" fill="rgba(15,23,42,0.6)" stroke="#ffffff" stroke-opacity="0.45" stroke-width="1"/>
    <polygon points="155.9,72.0 124.7,90.0 93.5,72.0 93.5,36.0 124.7,18.0 155.9,36.0" fill="rgba(15,23,42,0.6)" stroke="#ffffff" stroke-opacity="0.45" stroke-width="1"/>
    <polygon points="218.2,72.0 187.1,90.0 155.9,72.0 155.9,36.0 187.1,18.0 218.2,36.0" fill="rgba(15,23,42,0.6)" stroke="#ffffff" stroke-opacity="0.45" stroke-width="1"/>
    <polygon points="280.6,72.0 249.4,90.0 218.2,72.0 218.2,36.0 249.4,18.0 280.6,36.0" fill="rgba(15,23,42,0.6)" stroke="#ffffff" stroke-opacity="0.45" stroke-width="1"/>
    <polygon points="-187.1,126.0 -218.2,144.0 -249.4,126.0 -249.4,90.0 -218.2,72.0 -187.1,90.0" fill="rgba(15,23,42,0.6)" stroke="#ffffff" stroke-opacity="0.45" stroke-width="1"/>
    <polygon points="-124.7,126.0 -155.9,144.0 -187.1,126.0 -187.1,90.0 -155.9,72.0 -124.7,90.0" fill="rgba(15,23,42,0.6)" stroke="#ffffff" stroke-opacity="0.45" stroke-width="1"/>
    <polygon points="-62.4,126.0 -93.5,144.0 -124.7,126.0 -124.7,90.0 -93.5,72.0 -62.4,90.0" fill="rgba(15,23,42,0.6)" stroke="#ffffff" stroke-opacity="0.45" stroke-width="1"/>
    <polygon points="0.0,126.0 -31.2,144.0 -62.4,126.0 -62.4,90.0 -31.2,72.0 -0.0,90.0" fill="rgba(15,23,42,0.6)" stroke="#ffffff" stroke-opacity="0.45" stroke-width="1"/>
    <polygon points="62.4,126.0 31.2,144.0 0.0,126.0 -0.0,90.0 31.2,72.0 62.4,90.0" fill="rgba(15,23,42,0.6)" stroke="#ffffff" stroke-opacity="0.45" stroke-width="1"/>
    <polygon points="124.7,126.0 93.5,144.0 62.4,126.0 62.4,90.0 93.5,72.0 124.7,90.0" fill="rgba(15,23,42,0.6)" stroke="#ffffff" stroke-opacity="0.45" stroke-width="1"/>
    <polygon points="187.1,126.0 155.9,144.0 124.7,126.0 124.7,90.0 155.9,72.0 187.1,90.0" fill="rgba(15,23,42,0.6)" stroke="#ffffff" stroke-opacity="0.45" stroke-width="1"/>
    <polygon points="249.4,126.0 218.2,144.0 187.1,126.0 187.1,90.0 218.2,72.0 249.4,90.0" fill="rgba(15,23,42,0.6)" stroke="#ffffff" stroke-opacity="0.45" stroke-width="1"/>
    <polygon points="311.8,126.0 280.6,144.0 249.4,126.0 249.4,90.0 280.6,72.0 311.8,90.0" fill="rgba(15,23,42,0.6)" stroke="#ffffff" stroke-opacity="0.45" stroke-width="1"/>
    <polygon points="-218.2,180.0 -249.4,198.0 -280.6,180.0 -280.6,144.0 -249.4,126.0 -218.2,144.0" fill="rgba(15,23,42,0.6)" stroke="#ffffff" stroke-opacity="0.45" stroke-width="1"/>
    <polygon points="-155.9,180.0 -187.1,198.0 -218.2,180.0 -218.2,144.0 -187.1,126.0 -155.9,144.0" fill="rgba(15,23,42,0.6)" stroke="#ffffff" stroke-opacity="0.45" stroke-width="1"/>
    <polygon points="-93.5,180.0 -124.7,198.0 -155.9,180.0 -155.9,144.0 -124.7,126.0 -93.5,144.0" fill="rgba(15,23,42,0.6)" stroke="#ffffff" stroke-opacity="0.45" stroke-width="1"/>
    <polygon points="-31.2,180.0 -62.4,198.0 -93.5,180.0 -93.5,144.0 -62.4,126.0 -31.2,144.0" fill="rgba(15,23,42,0.6)" stroke="#ffffff" stroke-opacity="0.45" stroke-width="1"/>
    <polygon points="31.2,180.0 0.0,198.0 -31.2,180.0 -31.2,144.0 -0.0,126.0 31.2,144.0" fill="rgba(15,23,42,0.6)" stroke="#ffffff" stroke-opacity="0.45" stroke-width="1"/>
    <polygon points="93.5,180.0 62.4,198.0 31.2,180.0 31.2,144.0 62.4,126.0 93.5,144.0" fill="rgba(15,23,42,0.6)" stroke="#ffffff" stroke-opacity="0.45" stroke-width="1"/>
    <polygon points="155.9,180.0 124.7,198.0 93.5,180.0 93.5,144.0 124.7,126.0 155.9,144.0" fill="rgba(15,23,42,0.6)" stroke="#ffffff" stroke-opacity="0.45" stroke-width="1"/>
    <polygon points="218.2,180.0 187.1,198.0 155.9,180.0 155.9,144.0 187.1,126.0 218.2,144.0" fill="rgba(15,23,42,0.6)" stroke="#ffffff" stroke-opacity="0.45" stroke-width="1"/>
    <polygon points="280.6,180.0 249.4,198.0 218.2,180.0 218.2,144.0 249.4,126.0 280.6,144.0" fill="rgba(15,23,42,0.6)" stroke="#ffffff" stroke-opacity="0.45" stroke-width="1"/>
    <text x="0" y="180" font-family="monospace" font-size="14" fill="#38bdf8" text-anchor="middle">HEX LATTICE · DEFECT LOCALIZATION</text>
  </g>

  <g stroke="#38bdf8" stroke-width="2" fill="none" opacity="0.5">
    <path d="M 50,50 L 150,50 M 50,50 L 50,150"/>
    <path d="M 1870,50 L 1770,50 M 1870,50 M 1870,150"/>
    <path d="M 50,1030 L 150,1030 M 50,1030 L 50,930"/>
    <path d="M 1870,1030 L 1770,1030 M 1870,1030 M 1870,930"/>
  </g>

  <g transform="translate(960, 1010)" text-anchor="middle" font-family="sans-serif">
    <text font-size="15" font-weight="bold" fill="#ffffff" fill-opacity="0.4" letter-spacing="4">— ASK-MERIDIAN.UK —</text>
    <text y="24" font-size="13" fill="#718096" fill-opacity="0.8" letter-spacing="1">/blog/orbital-altermagnetic-photonic-crystal/</text>
  </g>
</svg>
