<svg viewBox="0 0 800 800" xmlns="http://www.w3.org/2000/svg">
  <defs>
    <linearGradient id="bgGrad" x1="0%" y1="0%" x2="100%" y2="100%">
      <stop offset="0%" stop-color="#070D1A"></stop>
      <stop offset="55%" stop-color="#0F1F38"></stop>
      <stop offset="100%" stop-color="#070D1A"></stop>
    </linearGradient>
    <radialGradient id="meridianGlow" cx="50%" cy="50%" r="50%">
      <stop offset="0%" stop-color="#F5F1E8" stop-opacity="0.32"></stop>
      <stop offset="100%" stop-color="#F5F1E8" stop-opacity="0"></stop>
    </radialGradient>
    <radialGradient id="centerGlow" cx="50%" cy="50%" r="50%">
      <stop offset="0%" stop-color="#1A3358" stop-opacity="0.45"></stop>
      <stop offset="100%" stop-color="#1A3358" stop-opacity="0"></stop>
    </radialGradient>
    <radialGradient id="dotPulse" cx="50%" cy="50%" r="50%">
      <stop offset="0%" stop-color="#7DD3C0" stop-opacity="0.9"></stop>
      <stop offset="100%" stop-color="#7DD3C0" stop-opacity="0"></stop>
    </radialGradient>
    <clipPath id="capsuleClipSm">
      <rect x="-14" y="-44" width="28" height="88" rx="14"></rect>
    </clipPath>
    <radialGradient id="boticaGlow" cx="50%" cy="50%" r="50%">
      <stop offset="0%" stop-color="#3FB57A" stop-opacity="0.22"></stop>
      <stop offset="100%" stop-color="#3FB57A" stop-opacity="0"></stop>
    </radialGradient>
  </defs>

  <rect width="800" height="800" fill="url(#bgGrad)"></rect>
  <ellipse cx="400" cy="400" rx="450" ry="350" fill="url(#centerGlow)"></ellipse>

  
  <g fill="#F5F1E8">
    <circle cx="80" cy="100" r="1" fill-opacity="0.4"></circle>
    <circle cx="220" cy="60" r="1.2" fill-opacity="0.5"></circle>
    <circle cx="560" cy="80" r="1" fill-opacity="0.35"></circle>
    <circle cx="720" cy="120" r="1.1" fill-opacity="0.4"></circle>
    <circle cx="100" cy="700" r="1" fill-opacity="0.35"></circle>
    <circle cx="300" cy="740" r="1.1" fill-opacity="0.4"></circle>
    <circle cx="640" cy="690" r="1" fill-opacity="0.35"></circle>
    <circle cx="730" cy="730" r="1.2" fill-opacity="0.5"></circle>
  </g>

  
  <g transform="translate(400, 90)">
    <rect x="-110" y="-20" width="220" height="40" rx="20" fill="#3FB57A" fill-opacity="0.12" stroke="#3FB57A" stroke-width="1" stroke-opacity="0.5"></rect>
    <circle cx="-78" cy="0" r="4" fill="#3FB57A"></circle>
    <text x="-64" y="5" text-anchor="start" font-family="&#39;SF Mono&#39;, &#39;Menlo&#39;, &#39;Courier New&#39;, monospace" font-size="14" font-weight="600" letter-spacing="3.5" fill="#3FB57A">PHARMACY  MCP</text>
  </g>

  
  <text x="400" y="190" text-anchor="middle" font-family="&#39;Helvetica Neue&#39;, &#39;Arial&#39;, sans-serif" font-size="46" font-weight="300" letter-spacing="-0.8" fill="#F5F1E8">Chat to cart.</text>
  <text x="400" y="240" text-anchor="middle" font-family="&#39;Helvetica Neue&#39;, &#39;Arial&#39;, sans-serif" font-size="46" font-weight="300" font-style="italic" letter-spacing="-0.8" fill="#3FB57A">Browser to checkout.</text>

  

  <g transform="translate(220, 460)">
    <circle r="57.0" fill="url(#meridianGlow)"></circle>
    <circle r="76.0" fill="none" stroke="#1A2D4A" stroke-width="1"></circle>
    <g stroke="#F5F1E8" stroke-width="1.3299999999999998" stroke-linecap="round">
      <line x1="0" y1="-83.0" x2="0" y2="-75.0"></line>
      <line x1="0" y1="75.0" x2="0" y2="83.0"></line>
      <line x1="-83.0" y1="0" x2="-75.0" y2="0"></line>
      <line x1="75.0" y1="0" x2="83.0" y2="0"></line>
    </g>
    <line x1="0" y1="-88.0" x2="0" y2="88.0" stroke="#F5F1E8" stroke-width="0.5" stroke-opacity="0.25"></line>
    <ellipse rx="70.3" ry="19.95" fill="none" stroke="#F5F1E8" stroke-width="1.52" transform="rotate(-22)"></ellipse>
    <ellipse rx="70.3" ry="19.95" fill="none" stroke="#D4A574" stroke-width="1.3299999999999998" transform="rotate(22)" stroke-opacity="0.9"></ellipse>
    <circle cx="65.16999999999999" cy="-26.314999999999998" r="3.8" fill="#F5F1E8"></circle>
    <circle cx="-65.16999999999999" cy="-26.314999999999998" r="3.23" fill="#D4A574"></circle>
    <circle cx="-65.16999999999999" cy="26.314999999999998" r="2.09" fill="#F5F1E8" fill-opacity="0.55"></circle>
    <circle cx="65.16999999999999" cy="26.314999999999998" r="2.09" fill="#D4A574" fill-opacity="0.55"></circle>
    <circle r="7.6" fill="#F5F1E8"></circle>
    <circle r="2.375" fill="#070D1A"></circle>
  </g>

  
  <g transform="translate(580, 460)">
    <circle r="76" fill="url(#boticaGlow)"></circle>
    <circle r="76" fill="none" stroke="#3FB57A" stroke-width="1.6" stroke-opacity="0.6"></circle>
    <g stroke="#F5F1E8" stroke-width="1.4" stroke-linecap="round">
      <line x1="0" y1="-83" x2="0" y2="-77"></line>
      <line x1="0" y1="77" x2="0" y2="83"></line>
      <line x1="-83" y1="0" x2="-77" y2="0"></line>
      <line x1="77" y1="0" x2="83" y2="0"></line>
    </g>
    <g clip-path="url(#capsuleClipSm)">
      <rect x="-14" y="-44" width="28" height="44" fill="#1F8A4C"></rect>
      <rect x="-14" y="0" width="28" height="44" fill="#F5F1E8"></rect>
    </g>
    <rect x="-14" y="-44" width="28" height="88" rx="14" fill="none" stroke="#2A9D5C" stroke-width="1.5"></rect>
    <line x1="-12" y1="0" x2="12" y2="0" stroke="#2A9D5C" stroke-width="0.8" stroke-opacity="0.7"></line>
    <circle cx="0" cy="-58" r="2" fill="#3FB57A" fill-opacity="0.8"></circle>
  </g>

  
  <g fill="none" stroke-linecap="round">
    <line x1="305" y1="460" x2="495" y2="460" stroke="#1A2D4A" stroke-width="1.5"></line>
    <line x1="305" y1="460" x2="385" y2="460" stroke="#D4A574" stroke-width="2" stroke-dasharray="3 5" stroke-opacity="0.85"></line>
    <line x1="415" y1="460" x2="495" y2="460" stroke="#3FB57A" stroke-width="2" stroke-dasharray="3 5" stroke-opacity="0.85"></line>
    <circle cx="400" cy="460" r="14" fill="url(#dotPulse)"></circle>
    <circle cx="400" cy="460" r="7" fill="#0F1F38" stroke="#7DD3C0" stroke-width="1.2"></circle>
    <circle cx="400" cy="460" r="2" fill="#7DD3C0"></circle>
  </g>

  
  <text x="220" y="585" text-anchor="middle" font-family="&#39;Helvetica Neue&#39;, &#39;Arial&#39;, sans-serif" font-size="22" font-weight="400" fill="#F5F1E8">Meridian</text>
  <text x="580" y="585" text-anchor="middle" font-family="&#39;Georgia&#39;, &#39;Times New Roman&#39;, serif" font-size="26" font-weight="400" font-style="italic" letter-spacing="1.5" fill="#F5F1E8">Botica</text>

  
  <g transform="translate(400, 730)">
    <line x1="-25" y1="-7" x2="0" y2="-7" stroke="#D4A574" stroke-width="1.2"></line>
    <text x="10" y="0" text-anchor="start" font-family="&#39;SF Mono&#39;, &#39;Menlo&#39;, &#39;Courier New&#39;, monospace" font-size="14" font-weight="500" letter-spacing="2.5" fill="#D4A574">ASK-MERIDIAN.UK</text>
  </g>
</svg>